<?xml version="1.0" encoding="UTF-8"?>
<!--Generator: Apple Native CoreSVG 341-->
<!DOCTYPE svg
PUBLIC "-//W3C//DTD SVG 1.1//EN"
       "http://www.w3.org/Graphics/SVG/1.1/DTD/svg11.dtd">
<svg version="1.1" xmlns="http://www.w3.org/2000/svg" xmlns:xlink="http://www.w3.org/1999/xlink" viewBox="0 0 82.1289 104.736">
 <g>
  <rect height="104.736" opacity="0" width="82.1289" x="0" y="0"/>
  <path d="M15.1367 104.688L66.9922 104.688C77.0996 104.688 82.1289 99.5605 82.1289 89.4043L82.1289 45.0684C82.1289 38.7695 81.3965 36.0352 77.4902 32.0312L50.5859 4.63867C46.875 0.830078 43.7988 0 38.3301 0L15.1367 0C5.07812 0 0 5.17578 0 15.332L0 89.4043C0 99.6094 5.0293 104.688 15.1367 104.688ZM15.4785 96.8262C10.4492 96.8262 7.86133 94.1406 7.86133 89.2578L7.86133 15.4785C7.86133 10.6445 10.4492 7.86133 15.5273 7.86133L37.2559 7.86133L37.2559 36.2305C37.2559 42.3828 40.332 45.4102 46.4355 45.4102L74.2676 45.4102L74.2676 89.2578C74.2676 94.1406 71.6797 96.8262 66.6016 96.8262ZM47.3145 38.0371C45.3613 38.0371 44.6289 37.2559 44.6289 35.3027L44.6289 9.375L72.7539 38.0371Z" fill="black" fill-opacity="0.85"/>
  <path d="M26.8066 71.5332C27.7344 71.5332 28.7109 71.1426 29.3945 70.4102L33.6914 66.0645L40.625 58.8867L41.8457 58.8867L48.8281 66.0645L53.0762 70.4102C53.7598 71.1426 54.7363 71.5332 55.6641 71.5332C57.6172 71.5332 59.1309 70.1172 59.1309 68.1641C59.1309 67.041 58.6914 66.2109 57.9102 65.5273L43.9941 52.7344C42.9688 51.8066 42.2363 51.4648 41.2598 51.4648C40.2832 51.4648 39.5508 51.8066 38.5254 52.7344L24.6094 65.5273C23.8281 66.2109 23.3398 67.041 23.3398 68.1641C23.3398 70.1172 24.8047 71.5332 26.8066 71.5332ZM41.2598 90.918C43.2617 90.918 44.9707 89.3066 44.9707 87.3047L44.9707 69.7266L44.4824 57.959C44.2871 53.7598 38.2324 53.7598 38.0371 57.959L37.5 69.7266L37.5 87.3047C37.5 89.3066 39.2578 90.918 41.2598 90.918Z" fill="black" fill-opacity="0.85"/>
 </g>
</svg>
