<?xml version="1.0" encoding="UTF-8"?>
<!--Generator: Apple Native CoreSVG 341-->
<!DOCTYPE svg
PUBLIC "-//W3C//DTD SVG 1.1//EN"
       "http://www.w3.org/Graphics/SVG/1.1/DTD/svg11.dtd">
<svg version="1.1" xmlns="http://www.w3.org/2000/svg" xmlns:xlink="http://www.w3.org/1999/xlink" viewBox="0 0 119.154 99.6582">
 <g>
  <rect height="99.6582" opacity="0" width="119.154" x="0" y="0"/>
  <path d="M115.68 41.6992L93.2683 41.6992C89.8015 41.6992 88.9226 44.043 90.7781 46.7285L101.716 62.3047C103.278 64.5508 105.622 64.5996 107.233 62.3047L118.171 46.7773C120.075 44.043 119.147 41.6992 115.68 41.6992ZM59.5769 8.30078C82.5261 8.30078 101.081 26.8555 101.081 49.8047C101.081 52.0508 102.936 53.9062 105.28 53.9062C107.526 53.9062 109.333 52.0996 109.382 49.8535C109.333 22.2656 87.0671 0 59.5769 0C44.9285 0 31.6472 6.34766 22.5164 16.5527C20.5144 18.75 21.198 21.6309 23.0535 22.9004C24.616 24.0723 26.7156 24.1699 28.7664 21.9727C36.3835 13.5254 47.3699 8.30078 59.5769 8.30078ZM3.47339 57.9102L25.8855 57.9102C29.3523 57.9102 30.2312 55.5176 28.3757 52.8809L17.4382 37.2559C15.8757 35.0586 13.532 35.0098 11.9207 37.2559L0.983151 52.832C-0.921146 55.5176-0.04224 57.9102 3.47339 57.9102ZM59.5769 91.3086C36.6277 91.3086 18.073 72.7539 18.073 49.8047C18.073 47.5586 16.1687 45.6543 13.8738 45.6543C11.6277 45.6543 9.82104 47.5098 9.77221 49.7559C9.82104 77.3438 32.0867 99.6094 59.5769 99.6094C74.2253 99.6094 87.5066 93.2617 96.6374 83.0566C98.6394 80.8105 97.9558 77.9785 96.1003 76.6602C94.5378 75.5371 92.4382 75.4395 90.3874 77.5879C82.7703 86.0352 71.7839 91.3086 59.5769 91.3086Z" fill="black" fill-opacity="0.85"/>
 </g>
</svg>
