<?xml version="1.0" encoding="UTF-8"?>
<!--Generator: Apple Native CoreSVG 341-->
<!DOCTYPE svg
PUBLIC "-//W3C//DTD SVG 1.1//EN"
       "http://www.w3.org/Graphics/SVG/1.1/DTD/svg11.dtd">
<svg version="1.1" xmlns="http://www.w3.org/2000/svg" xmlns:xlink="http://www.w3.org/1999/xlink" viewBox="0 0 82.1289 104.736">
 <g>
  <rect height="104.736" opacity="0" width="82.1289" x="0" y="0"/>
  <path d="M15.1367 104.688L66.9922 104.688C77.0996 104.688 82.1289 99.5605 82.1289 89.4043L82.1289 45.0684C82.1289 38.7695 81.3965 36.0352 77.4902 32.0312L50.5859 4.63867C46.875 0.830078 43.7988 0 38.3301 0L15.1367 0C5.07812 0 0 5.17578 0 15.332L0 89.4043C0 99.6094 5.0293 104.688 15.1367 104.688ZM15.4785 96.8262C10.4492 96.8262 7.86133 94.1406 7.86133 89.2578L7.86133 15.4785C7.86133 10.6445 10.4492 7.86133 15.5273 7.86133L37.2559 7.86133L37.2559 36.2305C37.2559 42.3828 40.332 45.4102 46.4355 45.4102L74.2676 45.4102L74.2676 89.2578C74.2676 94.1406 71.6797 96.8262 66.6016 96.8262ZM47.3145 38.0371C45.3613 38.0371 44.6289 37.2559 44.6289 35.3027L44.6289 9.375L72.7539 38.0371Z" fill="black" fill-opacity="0.85"/>
  <path d="M26.8066 70.8496C24.8047 70.8496 23.3398 72.2656 23.3398 74.2188C23.3398 75.3418 23.8281 76.1719 24.6094 76.8555L38.5254 89.6484C39.5508 90.5762 40.2832 90.918 41.2598 90.918C42.2363 90.918 42.9688 90.5762 43.9941 89.6484L57.9102 76.8555C58.6914 76.1719 59.1309 75.3418 59.1309 74.2188C59.1309 72.2656 57.6172 70.8496 55.6641 70.8496C54.7363 70.8496 53.7598 71.2402 53.0762 71.9727L48.8281 76.3184L41.8457 83.4961L40.625 83.4961L33.6914 76.3184L29.3945 71.9727C28.7109 71.2402 27.7344 70.8496 26.8066 70.8496ZM41.2598 51.4648C39.2578 51.4648 37.5 53.0762 37.5 55.0781L37.5 72.6562L38.0371 84.4238C38.2324 88.623 44.2871 88.623 44.4824 84.4238L44.9707 72.6562L44.9707 55.0781C44.9707 53.0762 43.2617 51.4648 41.2598 51.4648Z" fill="black" fill-opacity="0.85"/>
 </g>
</svg>
