<?xml version="1.0" encoding="UTF-8"?>
<!--Generator: Apple Native CoreSVG 341-->
<!DOCTYPE svg
PUBLIC "-//W3C//DTD SVG 1.1//EN"
       "http://www.w3.org/Graphics/SVG/1.1/DTD/svg11.dtd">
<svg version="1.1" xmlns="http://www.w3.org/2000/svg" xmlns:xlink="http://www.w3.org/1999/xlink" viewBox="0 0 102.344 93.3105">
 <g>
  <rect height="93.3105" opacity="0" width="102.344" x="0" y="0"/>
  <path d="M13.3301 92.7734L89.0137 92.7734C97.3145 92.7734 102.344 87.0117 102.344 79.541C102.344 77.2461 101.66 74.8535 100.439 72.7051L62.5488 6.68945C60.0098 2.24609 55.6641 0 51.1719 0C46.6797 0 42.2852 2.24609 39.7949 6.68945L1.9043 72.7051C0.585938 74.9023 0 77.2461 0 79.541C0 87.0117 5.0293 92.7734 13.3301 92.7734Z" fill="#ffcc00"/>
  <path d="M51.2207 60.1562C48.6816 60.1562 47.2656 58.6914 47.2168 56.1035L46.582 29.541C46.5332 26.9531 48.4375 25.0977 51.1719 25.0977C53.8086 25.0977 55.8594 27.002 55.8105 29.5898L55.0781 56.1035C55.0293 58.7402 53.6133 60.1562 51.2207 60.1562ZM51.2207 76.5137C48.291 76.5137 45.752 74.1699 45.752 71.2891C45.752 68.3594 48.2422 66.0156 51.2207 66.0156C54.1504 66.0156 56.6406 68.3105 56.6406 71.2891C56.6406 74.2188 54.1016 76.5137 51.2207 76.5137Z" fill="white"/>
 </g>
</svg>
