<?xml version="1.0" encoding="UTF-8"?>
<!--Generator: Apple Native CoreSVG 341-->
<!DOCTYPE svg
PUBLIC "-//W3C//DTD SVG 1.1//EN"
       "http://www.w3.org/Graphics/SVG/1.1/DTD/svg11.dtd">
<svg version="1.1" xmlns="http://www.w3.org/2000/svg" xmlns:xlink="http://www.w3.org/1999/xlink" viewBox="0 0 120.044 116.52">
 <g>
  <rect height="116.52" opacity="0" width="120.044" x="0" y="0"/>
  <path d="M87.1635 16.8853L79.6021 24.4467L37.1704 24.4467C29.1626 24.4467 24.6216 28.9878 24.6216 36.9956L24.6216 82.6987C24.6216 90.7553 29.1626 95.2475 37.1704 95.2475L82.8735 95.2475C90.9302 95.2475 95.4224 90.7553 95.4224 82.6987L95.4224 40.6479L103.018 33.0386C103.2 34.2964 103.284 35.6371 103.284 37.0444L103.284 82.6987C103.284 95.8335 96.0083 103.109 82.8735 103.109L37.1704 103.109C24.0845 103.109 16.7603 95.8335 16.7603 82.6987L16.7603 37.0444C16.7603 23.9096 24.0845 16.5854 37.1704 16.5854L82.8735 16.5854C84.385 16.5854 85.8188 16.6824 87.1635 16.8853Z" fill="black" fill-opacity="0.85"/>
  <path d="M49.8657 71.4682L59.3872 67.3178L104.993 21.7612L98.3032 15.1694L52.7466 60.726L48.3521 69.9057C47.9614 70.7358 48.938 71.8589 49.8657 71.4682ZM108.606 18.1967L112.122 14.5835C113.782 12.8257 113.782 10.4819 112.122 8.87058L110.999 7.6987C109.485 6.18503 107.092 6.38034 105.481 7.94284L101.917 11.4585Z" fill="black" fill-opacity="0.85"/>
 </g>
</svg>
