<?xml version="1.0" encoding="UTF-8"?>
<!--Generator: Apple Native CoreSVG 341-->
<!DOCTYPE svg
PUBLIC "-//W3C//DTD SVG 1.1//EN"
       "http://www.w3.org/Graphics/SVG/1.1/DTD/svg11.dtd">
<svg version="1.1" xmlns="http://www.w3.org/2000/svg" xmlns:xlink="http://www.w3.org/1999/xlink" viewBox="0 0 86.6699 126.709">
 <g>
  <rect height="126.709" opacity="0" width="86.6699" x="0" y="0"/>
  <path d="M86.6699 55.5664L86.6699 93.1641C86.6699 106.299 79.3457 113.574 66.2109 113.574L20.4102 113.574C7.27539 113.574 0 106.299 0 93.1641L0 55.5664C0 42.4805 7.27539 35.1562 20.4102 35.1562L30.2734 35.1563L30.2734 43.0176L20.4102 43.0176C12.4023 43.0176 7.86133 47.5586 7.86133 55.5664L7.86133 93.1641C7.86133 101.221 12.4023 105.713 20.4102 105.713L66.2109 105.713C74.2676 105.713 78.8086 101.221 78.8086 93.1641L78.8086 55.5664C78.8086 47.5586 74.2676 43.0176 66.2109 43.0176L56.3965 43.0176L56.3965 35.1563L66.2109 35.1562C79.3457 35.1562 86.6699 42.4805 86.6699 55.5664Z" fill="black" fill-opacity="0.85"/>
  <path d="M43.3594 9.17969C41.2598 9.17969 39.4531 10.8887 39.4531 12.9395L39.4531 62.6465L40.0391 75.7812C40.1367 77.5879 41.5527 79.0527 43.3594 79.0527C45.1172 79.0527 46.5332 77.5879 46.6309 75.7812L47.2168 62.6465L47.2168 12.9395C47.2168 10.8887 45.459 9.17969 43.3594 9.17969ZM26.7578 57.8125C24.707 57.8125 23.2422 59.2773 23.2422 61.2305C23.2422 62.3047 23.6816 63.0859 24.4141 63.8184L40.5273 79.3457C41.5039 80.3223 42.334 80.6641 43.3594 80.6641C44.3359 80.6641 45.166 80.3223 46.1426 79.3457L62.2559 63.8184C62.9883 63.0859 63.4277 62.3047 63.4277 61.2305C63.4277 59.2773 61.8652 57.8125 59.8633 57.8125C58.8867 57.8125 57.9102 58.2031 57.2266 58.9844L49.6582 67.041L43.3594 73.7793L37.0117 67.041L29.4434 58.9844C28.7598 58.2031 27.7344 57.8125 26.7578 57.8125Z" fill="black" fill-opacity="0.85"/>
 </g>
</svg>
